<svg width="210" height="83" viewBox="0 0 210 83" fill="none" xmlns="http://www.w3.org/2000/svg">
<path d="M0 40.4017C0 39.6276 0.627555 39 1.40168 39H208.598C209.372 39 210 39.6276 210 40.4017V81.5983C210 82.3724 209.372 83 208.598 83H1.40169C0.62756 83 0 82.3724 0 81.5983V40.4017Z" fill="black"/>
<path d="M51.7729 31.384C50.0022 31.384 48.2849 31.1493 46.6209 30.68C44.9782 30.1893 43.6555 29.56 42.6529 28.792L44.4129 24.888C45.3729 25.592 46.5142 26.1573 47.8369 26.584C49.1595 27.0107 50.4822 27.224 51.8049 27.224C53.2769 27.224 54.3649 27.0107 55.0689 26.584C55.7729 26.136 56.1249 25.5493 56.1249 24.824C56.1249 24.2907 55.9115 23.8533 55.4849 23.512C55.0795 23.1493 54.5462 22.8613 53.8849 22.648C53.2449 22.4347 52.3702 22.2 51.2609 21.944C49.5542 21.5387 48.1569 21.1333 47.0689 20.728C45.9809 20.3227 45.0422 19.672 44.2529 18.776C43.4849 17.88 43.1009 16.6853 43.1009 15.192C43.1009 13.8907 43.4529 12.7173 44.1569 11.672C44.8609 10.6053 45.9169 9.76267 47.3249 9.144C48.7542 8.52533 50.4929 8.216 52.5409 8.216C53.9702 8.216 55.3675 8.38667 56.7329 8.728C58.0982 9.06933 59.2929 9.56 60.3169 10.2L58.7169 14.136C56.6475 12.9627 54.5782 12.376 52.5089 12.376C51.0582 12.376 49.9809 12.6107 49.2769 13.08C48.5942 13.5493 48.2529 14.168 48.2529 14.936C48.2529 15.704 48.6475 16.28 49.4369 16.664C50.2475 17.0267 51.4742 17.3893 53.1169 17.752C54.8235 18.1573 56.2209 18.5627 57.3089 18.968C58.3969 19.3733 59.3249 20.0133 60.0929 20.888C60.8822 21.7627 61.2769 22.9467 61.2769 24.44C61.2769 25.72 60.9142 26.8933 60.1889 27.96C59.4849 29.0053 58.4182 29.8373 56.9889 30.456C55.5595 31.0747 53.8209 31.384 51.7729 31.384ZM64.4671 13.784H69.4591V31H64.4671V13.784ZM66.9631 11.384C66.0458 11.384 65.2991 11.1173 64.7231 10.584C64.1471 10.0507 63.8591 9.38933 63.8591 8.6C63.8591 7.81067 64.1471 7.14933 64.7231 6.616C65.2991 6.08267 66.0458 5.816 66.9631 5.816C67.8804 5.816 68.6271 6.072 69.2031 6.584C69.7791 7.096 70.0671 7.736 70.0671 8.504C70.0671 9.336 69.7791 10.0293 69.2031 10.584C68.6271 11.1173 67.8804 11.384 66.9631 11.384ZM84.4601 30.168C83.9695 30.5307 83.3615 30.808 82.6361 31C81.9321 31.1707 81.1961 31.256 80.4281 31.256C78.3588 31.256 76.7695 30.7333 75.6601 29.688C74.5508 28.6427 73.9961 27.1067 73.9961 25.08V9.976H78.9881V14.168H83.2441V18.008H78.9881V25.016C78.9881 25.7413 79.1695 26.3067 79.5321 26.712C79.8948 27.096 80.4174 27.288 81.1001 27.288C81.8681 27.288 82.5508 27.0747 83.1481 26.648L84.4601 30.168ZM95.4204 27.256C96.3164 27.256 97.1057 27.128 97.7884 26.872C98.4924 26.5947 99.143 26.168 99.7404 25.592L102.396 28.472C100.775 30.328 98.407 31.256 95.2924 31.256C93.351 31.256 91.6337 30.8827 90.1404 30.136C88.647 29.368 87.495 28.312 86.6844 26.968C85.8737 25.624 85.4684 24.0987 85.4684 22.392C85.4684 20.7067 85.863 19.192 86.6524 17.848C87.463 16.4827 88.5617 15.4267 89.9484 14.68C91.3564 13.912 92.935 13.528 94.6844 13.528C96.327 13.528 97.8204 13.88 99.1644 14.584C100.508 15.2667 101.575 16.2693 102.364 17.592C103.175 18.8933 103.58 20.44 103.58 22.232L90.8444 24.696C91.207 25.5493 91.7724 26.1893 92.5404 26.616C93.3297 27.0427 94.2897 27.256 95.4204 27.256ZM94.6844 17.304C93.4257 17.304 92.4017 17.7093 91.6124 18.52C90.823 19.3307 90.407 20.4507 90.3644 21.88L98.7484 20.248C98.5137 19.352 98.0337 18.6373 97.3084 18.104C96.583 17.5707 95.7084 17.304 94.6844 17.304ZM124.67 27.256C125.566 27.256 126.356 27.128 127.038 26.872C127.742 26.5947 128.393 26.168 128.99 25.592L131.646 28.472C130.025 30.328 127.657 31.256 124.542 31.256C122.601 31.256 120.884 30.8827 119.39 30.136C117.897 29.368 116.745 28.312 115.934 26.968C115.124 25.624 114.718 24.0987 114.718 22.392C114.718 20.7067 115.113 19.192 115.902 17.848C116.713 16.4827 117.812 15.4267 119.198 14.68C120.606 13.912 122.185 13.528 123.934 13.528C125.577 13.528 127.07 13.88 128.414 14.584C129.758 15.2667 130.825 16.2693 131.614 17.592C132.425 18.8933 132.83 20.44 132.83 22.232L120.094 24.696C120.457 25.5493 121.022 26.1893 121.79 26.616C122.58 27.0427 123.54 27.256 124.67 27.256ZM123.934 17.304C122.676 17.304 121.652 17.7093 120.862 18.52C120.073 19.3307 119.657 20.4507 119.614 21.88L127.998 20.248C127.764 19.352 127.284 18.6373 126.558 18.104C125.833 17.5707 124.958 17.304 123.934 17.304ZM158.234 13.528C160.389 13.528 162.095 14.168 163.354 15.448C164.634 16.7067 165.274 18.6053 165.274 21.144V31H160.282V21.912C160.282 20.5467 159.994 19.5333 159.418 18.872C158.863 18.1893 158.063 17.848 157.018 17.848C155.845 17.848 154.917 18.232 154.234 19C153.551 19.7467 153.21 20.8667 153.21 22.36V31H148.218V21.912C148.218 19.2027 147.13 17.848 144.954 17.848C143.802 17.848 142.885 18.232 142.202 19C141.519 19.7467 141.178 20.8667 141.178 22.36V31H136.186V13.784H140.954V15.768C141.594 15.0427 142.373 14.488 143.29 14.104C144.229 13.72 145.253 13.528 146.362 13.528C147.578 13.528 148.677 13.7733 149.658 14.264C150.639 14.7333 151.429 15.4267 152.026 16.344C152.73 15.448 153.615 14.7547 154.682 14.264C155.77 13.7733 156.954 13.528 158.234 13.528Z" fill="black"/>
<path d="M20.4902 70.256C18.6556 70.256 17.0022 69.8827 15.5302 69.136C14.0796 68.368 12.9382 67.312 12.1062 65.968C11.2956 64.624 10.8902 63.0987 10.8902 61.392C10.8902 59.6853 11.2956 58.16 12.1062 56.816C12.9382 55.472 14.0796 54.4267 15.5302 53.68C17.0022 52.912 18.6556 52.528 20.4902 52.528C22.3036 52.528 23.8822 52.912 25.2262 53.68C26.5916 54.4267 27.5836 55.504 28.2022 56.912L24.3302 58.992C23.4342 57.4133 22.1436 56.624 20.4582 56.624C19.1569 56.624 18.0796 57.0507 17.2262 57.904C16.3729 58.7573 15.9462 59.92 15.9462 61.392C15.9462 62.864 16.3729 64.0267 17.2262 64.88C18.0796 65.7333 19.1569 66.16 20.4582 66.16C22.1649 66.16 23.4556 65.3707 24.3302 63.792L28.2022 65.904C27.5836 67.2693 26.5916 68.336 25.2262 69.104C23.8822 69.872 22.3036 70.256 20.4902 70.256ZM39.0497 70.256C37.2364 70.256 35.6044 69.8827 34.1537 69.136C32.7244 68.368 31.6044 67.312 30.7937 65.968C29.9831 64.624 29.5777 63.0987 29.5777 61.392C29.5777 59.6853 29.9831 58.16 30.7937 56.816C31.6044 55.472 32.7244 54.4267 34.1537 53.68C35.6044 52.912 37.2364 52.528 39.0497 52.528C40.8631 52.528 42.4844 52.912 43.9137 53.68C45.3431 54.4267 46.4631 55.472 47.2737 56.816C48.0844 58.16 48.4897 59.6853 48.4897 61.392C48.4897 63.0987 48.0844 64.624 47.2737 65.968C46.4631 67.312 45.3431 68.368 43.9137 69.136C42.4844 69.8827 40.8631 70.256 39.0497 70.256ZM39.0497 66.16C40.3297 66.16 41.3751 65.7333 42.1857 64.88C43.0177 64.0053 43.4337 62.8427 43.4337 61.392C43.4337 59.9413 43.0177 58.7893 42.1857 57.936C41.3751 57.0613 40.3297 56.624 39.0497 56.624C37.7697 56.624 36.7137 57.0613 35.8817 57.936C35.0497 58.7893 34.6337 59.9413 34.6337 61.392C34.6337 62.8427 35.0497 64.0053 35.8817 64.88C36.7137 65.7333 37.7697 66.16 39.0497 66.16ZM62.2905 52.528C64.4238 52.528 66.1412 53.168 67.4425 54.448C68.7652 55.728 69.4265 57.6267 69.4265 60.144V70H64.4345V60.912C64.4345 59.5467 64.1358 58.5333 63.5385 57.872C62.9412 57.1893 62.0772 56.848 60.9465 56.848C59.6878 56.848 58.6852 57.2427 57.9385 58.032C57.1918 58.8 56.8185 59.952 56.8185 61.488V70H51.8265V52.784H56.5945V54.8C57.2558 54.0747 58.0772 53.52 59.0585 53.136C60.0398 52.7307 61.1172 52.528 62.2905 52.528ZM79.7435 70.256C78.3142 70.256 76.9168 70.0853 75.5515 69.744C74.1862 69.3813 73.0982 68.9333 72.2875 68.4L73.9515 64.816C74.7195 65.3067 75.6475 65.712 76.7355 66.032C77.8235 66.3307 78.8902 66.48 79.9355 66.48C82.0475 66.48 83.1035 65.9573 83.1035 64.912C83.1035 64.4213 82.8155 64.0693 82.2395 63.856C81.6635 63.6427 80.7782 63.4613 79.5835 63.312C78.1755 63.0987 77.0128 62.8533 76.0955 62.576C75.1782 62.2987 74.3782 61.808 73.6955 61.104C73.0342 60.4 72.7035 59.3973 72.7035 58.096C72.7035 57.008 73.0128 56.048 73.6315 55.216C74.2715 54.3627 75.1888 53.7013 76.3835 53.232C77.5995 52.7627 79.0288 52.528 80.6715 52.528C81.8875 52.528 83.0928 52.6667 84.2875 52.944C85.5035 53.2 86.5062 53.5627 87.2955 54.032L85.6315 57.584C84.1168 56.7307 82.4635 56.304 80.6715 56.304C79.6048 56.304 78.8048 56.4533 78.2715 56.752C77.7382 57.0507 77.4715 57.4347 77.4715 57.904C77.4715 58.4373 77.7595 58.8107 78.3355 59.024C78.9115 59.2373 79.8288 59.44 81.0875 59.632C82.4955 59.8667 83.6475 60.1227 84.5435 60.4C85.4395 60.656 86.2182 61.136 86.8795 61.84C87.5408 62.544 87.8715 63.5253 87.8715 64.784C87.8715 65.8507 87.5515 66.8 86.9115 67.632C86.2715 68.464 85.3328 69.1147 84.0955 69.584C82.8795 70.032 81.4288 70.256 79.7435 70.256ZM101.319 69.168C100.829 69.5307 100.221 69.808 99.4955 70C98.7915 70.1707 98.0555 70.256 97.2875 70.256C95.2182 70.256 93.6288 69.7333 92.5195 68.688C91.4102 67.6427 90.8555 66.1067 90.8555 64.08V48.976H95.8475V53.168H100.103V57.008H95.8475V64.016C95.8475 64.7413 96.0288 65.3067 96.3915 65.712C96.7542 66.096 97.2768 66.288 97.9595 66.288C98.7275 66.288 99.4102 66.0747 100.007 65.648L101.319 69.168ZM108.907 55.056C109.504 54.224 110.304 53.5947 111.307 53.168C112.331 52.7413 113.504 52.528 114.827 52.528V57.136C114.272 57.0933 113.899 57.072 113.707 57.072C112.278 57.072 111.158 57.4773 110.347 58.288C109.536 59.0773 109.131 60.272 109.131 61.872V70H104.139V52.784H108.907V55.056ZM135.264 52.784V70H130.528V67.952C129.867 68.6987 129.078 69.2747 128.16 69.68C127.243 70.064 126.251 70.256 125.184 70.256C122.923 70.256 121.131 69.6053 119.808 68.304C118.486 67.0027 117.824 65.072 117.824 62.512V52.784H122.816V61.776C122.816 64.5493 123.979 65.936 126.304 65.936C127.499 65.936 128.459 65.552 129.184 64.784C129.91 63.9947 130.272 62.832 130.272 61.296V52.784H135.264ZM148.209 70.256C146.374 70.256 144.721 69.8827 143.249 69.136C141.798 68.368 140.657 67.312 139.825 65.968C139.014 64.624 138.609 63.0987 138.609 61.392C138.609 59.6853 139.014 58.16 139.825 56.816C140.657 55.472 141.798 54.4267 143.249 53.68C144.721 52.912 146.374 52.528 148.209 52.528C150.022 52.528 151.601 52.912 152.945 53.68C154.31 54.4267 155.302 55.504 155.921 56.912L152.049 58.992C151.153 57.4133 149.862 56.624 148.177 56.624C146.876 56.624 145.798 57.0507 144.945 57.904C144.092 58.7573 143.665 59.92 143.665 61.392C143.665 62.864 144.092 64.0267 144.945 64.88C145.798 65.7333 146.876 66.16 148.177 66.16C149.884 66.16 151.174 65.3707 152.049 63.792L155.921 65.904C155.302 67.2693 154.31 68.336 152.945 69.104C151.601 69.872 150.022 70.256 148.209 70.256ZM146.385 77.424C145.83 77.424 145.286 77.36 144.753 77.232C144.22 77.1253 143.772 76.9653 143.409 76.752L144.177 74.608C144.86 74.928 145.553 75.088 146.257 75.088C147.366 75.088 147.921 74.7467 147.921 74.064C147.921 73.4453 147.398 73.136 146.353 73.136H145.265L146.097 69.744H148.753L148.305 71.6C149.244 71.7067 149.937 71.9947 150.385 72.464C150.854 72.9547 151.089 73.552 151.089 74.256C151.089 75.2373 150.662 76.0053 149.809 76.56C148.956 77.136 147.814 77.424 146.385 77.424ZM176.048 52.784V70H171.28V68.016C170.043 69.5093 168.251 70.256 165.904 70.256C164.283 70.256 162.811 69.8933 161.488 69.168C160.187 68.4427 159.163 67.408 158.416 66.064C157.67 64.72 157.296 63.1627 157.296 61.392C157.296 59.6213 157.67 58.064 158.416 56.72C159.163 55.376 160.187 54.3413 161.488 53.616C162.811 52.8907 164.283 52.528 165.904 52.528C168.102 52.528 169.819 53.2213 171.056 54.608V52.784H176.048ZM166.768 66.16C168.027 66.16 169.072 65.7333 169.904 64.88C170.736 64.0053 171.152 62.8427 171.152 61.392C171.152 59.9413 170.736 58.7893 169.904 57.936C169.072 57.0613 168.027 56.624 166.768 56.624C165.488 56.624 164.432 57.0613 163.6 57.936C162.768 58.7893 162.352 59.9413 162.352 61.392C162.352 62.8427 162.768 64.0053 163.6 64.88C164.432 65.7333 165.488 66.16 166.768 66.16ZM169.84 50.672C169.264 50.672 168.752 50.5653 168.304 50.352C167.878 50.1173 167.398 49.808 166.864 49.424C166.523 49.168 166.235 48.976 166 48.848C165.787 48.72 165.574 48.656 165.36 48.656C164.912 48.656 164.55 48.816 164.272 49.136C163.995 49.4347 163.846 49.872 163.824 50.448H161.296C161.339 49.0187 161.691 47.888 162.352 47.056C163.035 46.2027 163.931 45.776 165.04 45.776C165.595 45.776 166.086 45.8933 166.512 46.128C166.96 46.3413 167.462 46.6507 168.016 47.056C168.358 47.312 168.635 47.504 168.848 47.632C169.083 47.76 169.307 47.824 169.52 47.824C169.947 47.824 170.299 47.6747 170.576 47.376C170.875 47.056 171.035 46.6293 171.056 46.096H173.584C173.542 47.4827 173.179 48.592 172.496 49.424C171.835 50.256 170.95 50.672 169.84 50.672ZM188.862 70.256C187.049 70.256 185.417 69.8827 183.966 69.136C182.537 68.368 181.417 67.312 180.606 65.968C179.796 64.624 179.39 63.0987 179.39 61.392C179.39 59.6853 179.796 58.16 180.606 56.816C181.417 55.472 182.537 54.4267 183.966 53.68C185.417 52.912 187.049 52.528 188.862 52.528C190.676 52.528 192.297 52.912 193.726 53.68C195.156 54.4267 196.276 55.472 197.086 56.816C197.897 58.16 198.302 59.6853 198.302 61.392C198.302 63.0987 197.897 64.624 197.086 65.968C196.276 67.312 195.156 68.368 193.726 69.136C192.297 69.8827 190.676 70.256 188.862 70.256ZM188.862 66.16C190.142 66.16 191.188 65.7333 191.998 64.88C192.83 64.0053 193.246 62.8427 193.246 61.392C193.246 59.9413 192.83 58.7893 191.998 57.936C191.188 57.0613 190.142 56.624 188.862 56.624C187.582 56.624 186.526 57.0613 185.694 57.936C184.862 58.7893 184.446 59.9413 184.446 61.392C184.446 62.8427 184.862 64.0053 185.694 64.88C186.526 65.7333 187.582 66.16 188.862 66.16Z" fill="#FFE430"/>
</svg>
